# xmcd
#
# Track frame offsets:
#	150
#	18775
#	38722
#	58474
#	72272
#	97799
#	119044
#	137992
#	159580
#	182326
#	202446
#	224608
#	246140
#	267305
#	291070
#	314987
#	327998
#
# Disc length: 4704
#
# Revision: 4
# Processed by: cddbd v1.5.1PL0 Copyright (c) Steve Scherf et al.
# Submitted via: CDex 1.51
# Normalized: r3:TDELIM( - )
#
DISCID=13125e11
DTITLE=Various Artist - Chilled Jazz - CD2
DYEAR=2002
DGENRE=Jazz
TTITLE0=Lamb - Gabriel
TTITLE1=Nitin Sawhney - Letting Go
TTITLE2=St Germain - Deep In It
TTITLE3=Koop - Waltz For Koop
TTITLE4=Jazzanova - L.O.V.E And  You and I
TTITLE5=Mari Boine - Gula Gula
TTITLE6=Nelly Furtado and Asha Bhonsie - I'm Like A Bird
TTITLE7=Salif Keita - Madan
TTITLE8=Groove Armada - At The River
TTITLE9=Kinobe - Slip Into Something More Confortable
TTITLE10=Fragile State - The Facts and  The Dreams
TTITLE11=Nathan Haines - The Illest Hobo
TTITLE12=Mitchell and Dewbury - Spaces and Places
TTITLE13=Nils Peter Molvaer - Hurry Slowly
TTITLE14=Phase 5 - Verb Vendor
TTITLE15=David Holmes feat. Sarah Cracknell - Gone
TTITLE16=Sigur Ros - Svefn-G-Englar
EXTD=YEAR: 2002
EXTT0=
EXTT1=
EXTT2=
EXTT3=
EXTT4=
EXTT5=
EXTT6=
EXTT7=
EXTT8=
EXTT9=
EXTT10=
EXTT11=
EXTT12=
EXTT13=
EXTT14=
EXTT15=
EXTT16=
PLAYORDER=
